<svg xmlns="http://www.w3.org/2000/svg" width="38" height="38" viewBox="0 0 38 38" fill="none">
  <path d="M29.942 24.8178L30.2833 25.1586V24.6762V17.4167C30.2833 17.0498 30.4291 16.6979 30.6885 16.4385C30.9479 16.1791 31.2998 16.0333 31.6667 16.0333C32.0336 16.0333 32.3854 16.1791 32.6448 16.4385C32.9043 16.6979 33.05 17.0498 33.05 17.4167V31.6667C33.05 33.2933 32.4038 34.8534 31.2536 36.0036C30.1034 37.1538 28.5433 37.8 26.9167 37.8H6.33333C4.70667 37.8 3.14663 37.1538 1.99641 36.0036C0.846188 34.8534 0.2 33.2933 0.2 31.6667V11.0833C0.2 9.45667 0.846188 7.89664 1.99641 6.74641C3.14663 5.59619 4.70667 4.95 6.33333 4.95H20.5833C20.9502 4.95 21.3021 5.09574 21.5615 5.35517C21.8209 5.61459 21.9667 5.96645 21.9667 6.33333C21.9667 6.70022 21.8209 7.05207 21.5615 7.3115C21.3021 7.57092 20.9502 7.71667 20.5833 7.71667H6.33333C5.44044 7.71667 4.58411 8.07137 3.95274 8.70274C3.32137 9.33411 2.96667 10.1904 2.96667 11.0833V26.2596V26.7421L3.30802 26.4011L11.6914 18.0256C11.6915 18.0255 11.6916 18.0254 11.6917 18.0253C11.9509 17.7678 12.3014 17.6233 12.6667 17.6233C13.032 17.6233 13.3824 17.7678 13.6416 18.0253C13.6417 18.0254 13.6418 18.0255 13.6419 18.0256L18.8587 23.2344L19 23.3755L19.1413 23.2345L22.7748 19.6089C22.7748 19.6089 22.7748 19.6089 22.7748 19.6088C23.034 19.3512 23.3846 19.2067 23.75 19.2067C24.1155 19.2067 24.4661 19.3513 24.7253 19.6089L29.942 24.8178ZM12.8081 21.099L12.6667 20.9576L12.5252 21.099L3.02525 30.599L2.96667 30.6576V30.7404V31.6667C2.96667 32.5596 3.32137 33.4159 3.95274 34.0473C4.58411 34.6786 5.44044 35.0333 6.33333 35.0333H26.9167C27.8096 35.0333 28.6659 34.6786 29.2973 34.0473C29.9286 33.4159 30.2833 32.5596 30.2833 31.6667V29.1571V29.0742L30.2248 29.0157L23.8914 22.6823L23.7498 22.5408L23.6084 22.6825L19.9827 26.3162C19.9826 26.3162 19.9826 26.3162 19.9826 26.3162C19.8541 26.4448 19.7016 26.5468 19.5337 26.6164C19.3658 26.686 19.1858 26.7219 19.004 26.7219C18.8222 26.7219 18.6422 26.686 18.4742 26.6164C18.3063 26.5468 18.1537 26.4448 18.0253 26.3162L18.0252 26.3161L12.8081 21.099Z" fill="#666667" stroke="#131314" stroke-width="0.4"/>
  <path d="M33.05 4.75V4.95H33.25H36.4167C36.7836 4.95 37.1354 5.09574 37.3949 5.35517C37.6543 5.61459 37.8 5.96645 37.8 6.33333C37.8 6.70022 37.6543 7.05207 37.3949 7.3115C37.1354 7.57092 36.7836 7.71667 36.4167 7.71667H33.25H33.05V7.91667V11.0833C33.05 11.4502 32.9043 11.8021 32.6449 12.0615C32.3854 12.3209 32.0336 12.4667 31.6667 12.4667C31.2998 12.4667 30.948 12.3209 30.6885 12.0615C30.4291 11.8021 30.2834 11.4502 30.2834 11.0833V7.91667V7.71667H30.0834H26.9167C26.5498 7.71667 26.198 7.57092 25.9385 7.3115C25.6791 7.05207 25.5334 6.70022 25.5334 6.33333C25.5334 5.96645 25.6791 5.61459 25.9385 5.35517C26.198 5.09574 26.5498 4.95 26.9167 4.95H30.0834H30.2834V4.75V1.58333C30.2834 1.21645 30.4291 0.864594 30.6885 0.605169C30.948 0.345744 31.2998 0.2 31.6667 0.2C32.0336 0.2 32.3854 0.345744 32.6449 0.605169C32.9043 0.864594 33.05 1.21645 33.05 1.58333V4.75Z" fill="#666667" stroke="#131314" stroke-width="0.4"/>
  <path d="M21.9666 13.4583C21.9666 14.6595 20.9928 15.6333 19.7916 15.6333C18.5904 15.6333 17.6166 14.6595 17.6166 13.4583C17.6166 12.2571 18.5904 11.2833 19.7916 11.2833C20.9928 11.2833 21.9666 12.2571 21.9666 13.4583Z" fill="#666667" stroke="#131314" stroke-width="0.4"/>
</svg>
