<svg xmlns="http://www.w3.org/2000/svg" width="26" height="38" viewBox="0 0 26 38" fill="none">
  <path d="M17.9991 22.1256L17.999 22.1257C16.6728 23.4682 14.8749 24.2215 12.9996 24.2215C11.1242 24.2215 9.3265 23.4682 8.00036 22.1257L8.0003 22.1256C6.67237 20.7829 5.92758 18.9602 5.92758 17.0599V7.31186C5.92758 4.75258 7.27568 2.38764 9.46426 1.10975L9.46434 1.1097C11.6528 -0.169901 14.3466 -0.1699 16.535 1.1097L16.5351 1.10975C18.7237 2.38759 20.0718 4.75248 20.0718 7.31186V17.0599C20.0718 18.9603 19.327 20.783 17.9991 22.1256ZM16.1756 20.2748L16.1757 20.2746C17.018 19.4219 17.4884 18.2652 17.4829 17.0597C17.4829 17.0596 17.4829 17.0595 17.4829 17.0593L17.4829 7.31196C17.4829 4.80891 15.4765 2.77505 12.9996 2.77505C10.5227 2.77505 8.51637 4.80891 8.51637 7.31196L8.51638 17.0593C8.51638 17.0594 8.51637 17.0595 8.51637 17.0595C8.51084 18.2651 8.98123 19.4219 9.82354 20.2746L9.82365 20.2747C10.6658 21.1255 11.8091 21.6024 12.9996 21.5969C14.1902 21.6024 15.3334 21.1255 16.1756 20.2748ZM25.8494 15.0709V15.1115V17.0599C25.8458 20.2589 24.6783 23.3437 22.5721 25.7251C20.4642 28.1067 17.5659 29.6188 14.4272 29.9746L14.2941 29.9897V30.1237V35.0754V35.2254H14.4441H16.8508C17.5642 35.2254 18.1453 35.8126 18.1453 36.5377C18.1453 37.2645 17.5643 37.85 16.8508 37.85H9.14851C8.43503 37.85 7.85409 37.2645 7.85409 36.5377C7.85409 35.8126 8.43515 35.2254 9.14851 35.2254H11.5553H11.7053V35.0754V30.1237V29.9895L11.5719 29.9746C8.435 29.6242 5.53679 28.1158 3.42904 25.736C1.32288 23.358 0.153565 20.2749 0.15 17.0797L0.15 15.1113C0.15 14.3844 0.730938 13.799 1.44442 13.799C2.1579 13.799 2.73884 14.3844 2.73884 15.1113V17.0598C2.73884 17.0604 2.73884 17.061 2.73884 17.0616C2.73948 20.7712 4.69361 24.1997 7.86888 26.0544C11.0448 27.9095 14.9552 27.9096 18.1311 26.0544C21.3069 24.1993 23.2612 20.7699 23.2612 17.0598V15.1113C23.2612 14.3844 23.8421 13.799 24.5556 13.799C25.2558 13.799 25.8284 14.3629 25.8494 15.0709Z" fill="#666667" stroke="#131314" stroke-width="0.3"/>
</svg>
